<svg width="65" height="83" viewBox="0 0 65 83" fill="none" xmlns="http://www.w3.org/2000/svg">
<g id="Frame 202">
<path id="Rectangle 2331" d="M1 5C1 2.79086 2.79086 1 5 1H59.74C61.9491 1 63.74 2.79086 63.74 5V65.1654C63.74 66.7579 62.7953 68.1987 61.3349 68.8337L33.9649 80.7337C32.9476 81.176 31.7923 81.176 30.7751 80.7337L3.4051 68.8337C1.94466 68.1987 1 66.7579 1 65.1654V5Z" fill="url(#paint0_linear_117_17)" fill-opacity="0.45" stroke="#FFB800" stroke-width="2"/>
<g id="Vector" filter="url(#filter0_d_117_17)">
<path d="M44.1402 41.1754C44.1402 38.9448 42.3252 37.1298 40.0942 37.1298H23.9058C21.6748 37.1298 19.8598 38.9448 19.862 41.124L19.0874 49.8415C18.9213 51.1462 19.3245 52.4606 20.1942 53.4474C21.0632 54.4341 22.3157 55 23.6302 55C25.7389 55 27.5667 53.5708 28.0741 51.5244C28.1045 51.4243 28.2965 49.1778 28.3134 49.0775C28.3617 48.5788 28.7754 48.2024 29.276 48.2024H34.724C35.2246 48.2024 35.6383 48.5788 35.6859 49.0771C35.7033 49.1837 35.895 51.4188 35.926 51.5244C36.4333 53.5708 38.2611 55 40.3698 55C41.6843 55 42.9368 54.4341 43.8058 53.4474C44.6725 52.4632 45.0764 51.1537 44.9141 49.8529L44.1402 41.1754Z" fill="#FFB800"/>
<path d="M52.874 9H11.1261C9.95355 9 9 9.95393 9 11.1261V17.0958H55V11.1261C55 9.95393 54.0464 9 52.874 9ZM14.6934 14.2075H13.499C13.1789 14.2075 12.9192 13.9478 12.9192 13.6277C12.9192 13.3076 13.1789 13.0479 13.499 13.0479H14.6934C15.0135 13.0479 15.2732 13.3076 15.2732 13.6277C15.2732 13.9478 15.0135 14.2075 14.6934 14.2075ZM19.2399 14.2075H18.0455C17.7254 14.2075 17.4657 13.9478 17.4657 13.6277C17.4657 13.3076 17.7254 13.0479 18.0455 13.0479H19.2399C19.56 13.0479 19.8198 13.3076 19.8198 13.6277C19.8198 13.9478 19.56 14.2075 19.2399 14.2075ZM23.7865 14.2075H22.5928C22.2727 14.2075 22.013 13.9478 22.013 13.6277C22.013 13.3076 22.2727 13.0479 22.5928 13.0479H23.7865C24.1066 13.0479 24.3663 13.3076 24.3663 13.6277C24.3663 13.9478 24.1066 14.2075 23.7865 14.2075Z" fill="#FFB800"/>
<path d="M9 43.4211C9 44.5936 9.95355 45.5472 11.1261 45.5472H18.3049L18.7024 41.0689C18.7341 38.2774 21.0693 35.9701 23.9058 35.9701H26.0273C25.8468 34.0252 27.3283 32.2654 29.313 32.2771H34.687C36.6719 32.2655 38.1531 34.0252 37.9727 35.9701H40.0942C42.9307 35.9701 45.2659 38.2774 45.2999 41.1135L45.6948 45.5472H52.874C54.0464 45.5472 55 44.5936 55 43.4211V18.2554H9V43.4211ZM35.1513 22.6815C34.9248 22.455 34.9248 22.0881 35.1513 21.8616C35.3778 21.6351 35.7447 21.6351 35.9712 21.8616L39.5461 25.4361C39.6548 25.5448 39.716 25.6924 39.716 25.8461C39.716 25.9997 39.6548 26.1473 39.5461 26.256L35.9712 29.8305C35.858 29.9438 35.71 30.0004 35.5613 30.0004C35.4126 30.0004 35.2646 29.9438 35.1513 29.8305C34.9248 29.604 34.9248 29.2371 35.1513 29.0106L38.3162 25.8461L35.1513 22.6815ZM30.632 29.2937L32.2371 22.1447C32.3073 21.8318 32.6206 21.6366 32.9294 21.7057C33.242 21.7759 33.4383 22.0862 33.368 22.3984L31.7629 29.5474C31.6943 29.8625 31.3747 30.0567 31.0706 29.9864C30.758 29.9162 30.5617 29.6059 30.632 29.2937ZM24.4539 25.4361L28.0288 21.8616C28.2553 21.6351 28.6222 21.6351 28.8487 21.8616C29.0752 22.0881 29.0752 22.455 28.8487 22.6815L25.6838 25.8461L28.8487 29.0106C29.0752 29.2371 29.0752 29.604 28.8487 29.8305C28.7354 29.9438 28.5875 30.0004 28.4387 30.0004C28.29 30.0004 28.142 29.9438 28.0288 29.8305L24.4539 26.256C24.3452 26.1473 24.284 25.9997 24.284 25.8461C24.284 25.6924 24.3452 25.5448 24.4539 25.4361Z" fill="#FFB800"/>
<path d="M34.687 33.4367H29.313C28.1405 33.4367 27.1869 34.3903 27.1869 35.5628V35.9701H36.8131V35.5628C36.8131 34.3903 35.8595 33.4367 34.687 33.4367Z" fill="#FFB800"/>
</g>
</g>
<defs>
<filter id="filter0_d_117_17" x="5.90756" y="9" width="52.1849" height="52.1849" filterUnits="userSpaceOnUse" color-interpolation-filters="sRGB">
<feFlood flood-opacity="0" result="BackgroundImageFix"/>
<feColorMatrix in="SourceAlpha" type="matrix" values="0 0 0 0 0 0 0 0 0 0 0 0 0 0 0 0 0 0 127 0" result="hardAlpha"/>
<feOffset dy="3.09244"/>
<feGaussianBlur stdDeviation="1.54622"/>
<feComposite in2="hardAlpha" operator="out"/>
<feColorMatrix type="matrix" values="0 0 0 0 0 0 0 0 0 0 0 0 0 0 0 0 0 0 0.25 0"/>
<feBlend mode="normal" in2="BackgroundImageFix" result="effect1_dropShadow_117_17"/>
<feBlend mode="normal" in="SourceGraphic" in2="effect1_dropShadow_117_17" result="shape"/>
</filter>
<linearGradient id="paint0_linear_117_17" x1="32.37" y1="0" x2="32.37" y2="82.5176" gradientUnits="userSpaceOnUse">
<stop/>
<stop offset="1" stop-color="#363636"/>
</linearGradient>
</defs>
</svg>
